<?xml version="1.0" encoding="UTF-8" standalone="no"?><!DOCTYPE svg PUBLIC "-//W3C//DTD SVG 1.1//EN" "http://www.w3.org/Graphics/SVG/1.1/DTD/svg11.dtd"><svg width="100%" height="100%" viewBox="0 0 1700 300" version="1.1" xmlns="http://www.w3.org/2000/svg" xmlns:xlink="http://www.w3.org/1999/xlink" xml:space="preserve" style="fill-rule:evenodd;clip-rule:evenodd;stroke-linejoin:round;stroke-miterlimit:1.41421;"><g><path d="M485.562,41.13l0.009,0c2.073,-0.052 3.935,-1.064 5.133,-2.634c0.827,-1.091 1.333,-2.472 1.333,-3.99c0,-3.646 -2.954,-6.625 -6.625,-6.625c-0.213,0 -0.454,0.028 -0.692,0.028c-2.051,0.21 -3.859,1.408 -4.923,3.085c-0.957,1.518 -1.317,3.454 -0.719,5.539c0.808,2.804 3.567,4.597 6.484,4.597Z" style="fill:url(#_Linear1);"/><path d="M370.756,288.562c-13.498,0 -20.339,-9.767 -28.256,-21.091c-8.511,-12.148 -18.162,-25.942 -37.608,-25.942c-19.445,0 -29.1,13.794 -37.635,25.963c-7.914,11.303 -14.755,21.07 -28.228,21.07c-12.6,0 -19.397,-8.508 -26.683,-18.83c-0.025,-0.036 -0.04,-0.079 -0.067,-0.112c0,0 -0.107,-0.144 -0.232,-0.314c-0.424,-0.598 -0.847,-1.201 -1.274,-1.814c-0.463,-0.662 -0.93,-1.329 -1.402,-2c-8.765,-12.913 -34.036,-53.969 -27.93,-89.858c12.892,-75.774 81.304,-83.907 141.659,-91.083c25.205,-2.996 46.967,-5.581 62.459,-12.968c11.212,-5.347 20.656,-9.529 26.357,-11.998c0.067,-0.028 0.137,-0.012 0.192,0.033c1.006,0.845 2.298,1.348 3.679,1.348c0.226,0 0.457,-0.015 0.689,-0.043c3.137,-0.378 5.374,-3.228 4.996,-6.362c-0.143,-1.186 -0.189,-2.905 -0.085,-4.402l0.003,-0.018c0.268,-2.113 1.113,-5.506 3.347,-7.268c2.113,-1.664 5.524,-1.89 10.139,-0.685l2.381,0.621c0.061,0.016 0.122,0.007 0.171,-0.027l2.054,-1.356c11.301,-7.481 32.042,-19.553 39.568,-20.111c10.755,-0.786 22.671,2.021 22.79,2.049l1.689,0.408l25.976,-9.587c0.121,-0.043 0.253,0.018 0.283,0.143c1.668,6.984 1.64,22.488 -19.366,44.702c-56.692,59.95 -74.756,113.221 -89.273,156.026c-7.011,20.672 -13.071,38.529 -22.204,52.497c-7.899,11.276 -14.739,21.009 -28.189,21.009Zm147.979,-221.673c35.977,-38.044 19.534,-62.331 18.817,-63.349l-2.441,-3.451c-0.055,-0.076 -0.156,-0.11 -0.244,-0.076l-32.042,11.825c-0.034,0.012 -0.07,0.018 -0.107,0.009c-4.106,-0.848 -14.501,-2.68 -24.512,-1.939c-11.459,0.848 -34.66,15.245 -42.934,20.598c-0.036,0.025 -0.079,0.031 -0.125,0.025c-7.078,-1.33 -12.958,-0.208 -17.488,3.359c-3.347,2.637 -5.25,6.1 -6.35,9.294c-0.604,1.448 -0.97,3.049 -1.177,4.628c-0.009,0.061 -0.042,0.11 -0.097,0.134c-5.222,2.228 -16.105,6.975 -29.399,13.312c-13.788,6.573 -35.694,9.179 -58.886,11.935c-61.154,7.27 -137.26,16.318 -151.585,100.524c-4.094,24.061 3.853,49.351 12.974,68.842c0.073,0.155 -0.064,0.317 -0.232,0.268c-2.956,-0.829 -6.182,-1.298 -9.742,-1.298c-19.446,0 -29.1,13.794 -37.611,25.963c-6.951,9.922 -13.072,18.665 -23.598,20.65c-2.701,0.509 -4.655,2.865 -4.655,5.615c0,3.515 3.152,6.292 6.612,5.67c15.141,-2.725 23.515,-14.687 31.021,-25.39c7.913,-11.304 14.754,-21.071 28.231,-21.071c12.02,0 18.763,7.755 25.686,17.434c2.374,3.548 3.993,5.713 4.307,6.127c0,0 0.024,0.022 0.034,0.034c8.108,11.474 17.723,23.439 35.837,23.439c19.445,0 29.097,-13.794 37.608,-25.963c7.916,-11.304 14.757,-21.071 28.255,-21.071c13.474,0 20.315,9.767 28.228,21.071c8.536,12.169 18.19,25.963 37.636,25.963c19.446,0 29.097,-13.794 37.608,-25.963c0.031,-0.043 0.058,-0.083 0.089,-0.125l0.012,-0.015l0.009,-0.019c7.871,-11.233 14.711,-20.912 28.146,-20.912c13.474,0 20.314,9.767 28.231,21.071c7.505,10.703 15.876,22.665 31.017,25.39c3.46,0.622 6.616,-2.155 6.616,-5.67c0,-2.75 -1.958,-5.106 -4.658,-5.615c-10.527,-1.985 -16.648,-10.728 -23.595,-20.671c-8.511,-12.148 -18.165,-25.942 -37.611,-25.942c-5.024,0 -9.377,0.939 -13.242,2.518c-0.165,0.067 -0.327,-0.086 -0.263,-0.253c3.003,-7.844 5.856,-16.187 8.865,-25.067c14.16,-41.748 31.78,-93.705 86.755,-151.838Z" style="fill:url(#_Linear2);"/><path d="M813.545,157.981c0,-25.094 -16.985,-43.598 -41.065,-43.598c-24.079,0 -41.065,18.248 -41.065,43.598c0,26.107 16.986,44.107 41.065,44.107c24.08,0 41.065,-18.25 41.065,-44.107Zm29.399,1.012c0,40.303 -25.344,67.934 -63.873,67.934c-21.543,0 -37.764,-8.618 -47.656,-24.336l0,72.497l-29.145,0l0,-184.025l29.145,0l0,23.32c9.892,-15.715 26.113,-24.336 47.147,-24.336c38.276,0 64.382,27.881 64.382,68.946Z" style="fill:#46c8f1;fill-rule:nonzero;"/><path d="M902.501,158.74c0,26.107 16.985,43.851 41.321,43.851c24.079,0 41.065,-17.744 41.065,-43.851c0,-25.853 -16.986,-43.598 -41.065,-43.598c-24.336,0 -41.321,17.745 -41.321,43.598Zm111.532,-0.256c0,40.559 -28.646,68.443 -70.211,68.443c-41.83,0 -70.467,-27.884 -70.467,-68.443c0,-40.806 28.637,-68.437 70.467,-68.437c41.565,0 70.211,27.631 70.211,68.437Z" style="fill:#46c8f1;fill-rule:nonzero;"/><rect x="1058.39" y="37.831" width="29.146" height="188.08" style="fill:#46c8f1;fill-rule:nonzero;"/><path d="M1225.17,178.512l0,-12.422l-36.502,0c-19.012,0 -27.889,5.072 -27.889,17.998c0,12.166 9.886,20.028 26.109,20.028c20.787,0 36.755,-10.905 38.282,-25.604Zm0.253,30.923c-9.636,11.913 -25.097,17.745 -44.61,17.745c-29.155,0 -47.406,-17.998 -47.406,-41.824c0,-24.589 18.507,-40.303 50.951,-40.556l40.812,0l0,-4.058c0,-16.982 -10.904,-27.121 -32.191,-27.121c-12.931,0 -26.369,4.563 -39.803,13.687l-11.91,-20.278c18.76,-11.154 32.444,-16.983 58.041,-16.983c34.731,0 54.253,17.742 54.506,47.4l0.247,88.465l-28.637,0l0,-16.477Z" style="fill:#46c8f1;fill-rule:nonzero;"/><path d="M1334.92,117.928c9.124,-18.251 25.345,-27.881 46.641,-27.881l0,27.881c-27.125,-1.518 -44.357,14.45 -46.641,37.52l0,70.464l-29.151,0l0,-134.849l29.151,0l0,26.865Z" style="fill:#46c8f1;fill-rule:nonzero;"/><path d="M1418.31,225.912l0,-134.849l28.896,0l0,134.849l-28.896,0Zm31.436,-173.378c0,10.139 -7.356,17.489 -16.989,17.489c-9.63,0 -16.977,-7.35 -16.977,-17.489c0,-10.395 7.347,-17.748 16.977,-17.748c9.633,0 16.989,7.353 16.989,17.748Z" style="fill:#46c8f1;fill-rule:nonzero;"/><path d="M1590.41,103.482l-10.648,21.549c-11.913,-7.353 -26.862,-11.919 -38.776,-11.919c-11.41,0 -19.778,3.807 -19.778,13.437c0,24.841 71.738,11.407 71.485,60.325c0,27.631 -24.588,40.053 -51.707,40.053c-19.778,0 -40.812,-6.588 -54.249,-18.757l10.392,-20.787c11.666,10.395 30.42,16.733 45.122,16.733c12.423,0 22.053,-4.311 22.053,-14.45c0,-27.631 -70.976,-12.166 -70.72,-60.834c0,-27.377 23.823,-39.038 49.676,-39.038c16.986,0 34.984,5.07 47.15,13.688Z" style="fill:#46c8f1;fill-rule:nonzero;"/></g><defs><linearGradient id="_Linear1" x1="0" y1="0" x2="1" y2="0" gradientUnits="userSpaceOnUse" gradientTransform="matrix(1.55974e-08,346.612,-346.612,1.55974e-08,485.409,-33.3832)"><stop offset="0%" style="stop-color:#45c4dc;stop-opacity:1"/><stop offset="100%" style="stop-color:#f070ab;stop-opacity:1"/></linearGradient><linearGradient id="_Linear2" x1="0" y1="0" x2="1" y2="0" gradientUnits="userSpaceOnUse" gradientTransform="matrix(1.55951e-08,346.564,-346.564,1.55951e-08,324.61,-33.335)"><stop offset="0%" style="stop-color:#45c4dc;stop-opacity:1"/><stop offset="100%" style="stop-color:#f070ab;stop-opacity:1"/></linearGradient></defs></svg>